<svg width="97" height="97" xmlns="http://www.w3.org/2000/svg" xmlns:xlink="http://www.w3.org/1999/xlink" xml:space="preserve" overflow="hidden"><g transform="translate(-872 -365)"><g><g><g><g><path d="M923 399C923 400.105 922.105 401 921 401 919.895 401 919 400.105 919 399 919 397.895 919.895 397 921 397 922.105 397 923 397.895 923 399Z" fill="#000000" fill-rule="nonzero" fill-opacity="1"/><path d="M923 439C923 440.105 922.105 441 921 441 919.895 441 919 440.105 919 439 919 437.895 919.895 437 921 437 922.105 437 923 437.895 923 439Z" fill="#000000" fill-rule="nonzero" fill-opacity="1"/><path d="M943 418C943 419.105 942.105 420 941 420 939.895 420 939 419.105 939 418 939 416.895 939.895 416 941 416 942.105 416 943 416.895 943 418Z" fill="#000000" fill-rule="nonzero" fill-opacity="1"/><path d="M903 418C903 419.105 902.105 420 901 420 899.895 420 899 419.105 899 418 899 416.895 899.895 416 901 416 902.105 416 903 416.895 903 418Z" fill="#000000" fill-rule="nonzero" fill-opacity="1"/><path d="M923 404 919 404 919 418C919 418.5 919.2 419 919.6 419.4L929.5 429.3 932.3 426.5 923 417.2 923 404Z" fill="#000000" fill-rule="nonzero" fill-opacity="1"/><path d="M921 447C905.5 447 893 434.5 893 419 893 403.5 905.5 391 921 391 936.5 391 949 403.5 949 419 949 434.5 936.5 447 921 447L921 447ZM944.7 394.6 947.7 391.6C948.8 390.4 948.8 388.6 947.6 387.4 946.5 386.3 944.6 386.2 943.4 387.3L940 390.8C935.2 387.6 929.7 385.6 924 385.2L924 381 933 381 933 375 909 375 909 381 918 381 918 385.1C902.1 386.5 889.3 398.8 887.3 414.7 885.3 430.6 894.6 445.7 909.7 451 924.8 456.3 941.5 450.5 950 436.9 958.5 423.3 956.1 405.7 944.7 394.6Z" fill="#000000" fill-rule="nonzero" fill-opacity="1"/></g></g></g></g></g></svg>