<svg width="96" height="98" xmlns="http://www.w3.org/2000/svg" xmlns:xlink="http://www.w3.org/1999/xlink" xml:space="preserve" overflow="hidden"><g transform="translate(-580 -422)"><g><g><g><g><path d="M628 439C610.3 439 596 453.3 596 471 596 488.7 610.3 503 628 503 645.7 503 660 488.7 660 471 660 453.3 645.7 439 628 439ZM628 509C607 509 590 492 590 471 590 450 607 433 628 433 649 433 666 450 666 471 666 492 649 509 628 509Z" stroke="#000000" stroke-width="1.33333" stroke-linecap="butt" stroke-linejoin="miter" stroke-miterlimit="4" stroke-opacity="1" fill="#D2B1AD" fill-rule="nonzero" fill-opacity="1"/><path d="M648 463 636 463 636 451C636 448.8 634.2 447 632 447L624 447C621.8 447 620 448.8 620 451L620 463 608 463C605.8 463 604 464.8 604 467L604 475C604 477.2 605.8 479 608 479L620 479 620 491C620 493.2 621.8 495 624 495L632 495C634.2 495 636 493.2 636 491L636 479 648 479C650.2 479 652 477.2 652 475L652 467C652 464.8 650.2 463 648 463Z" stroke="#000000" stroke-width="1.33333" stroke-linecap="butt" stroke-linejoin="miter" stroke-miterlimit="4" stroke-opacity="1" fill="#D2B1AD" fill-rule="nonzero" fill-opacity="1"/></g></g></g></g></g></svg>