<svg width="96" height="97" xmlns="http://www.w3.org/2000/svg" xmlns:xlink="http://www.w3.org/1999/xlink" xml:space="preserve" overflow="hidden"><g transform="translate(-972 -28)"><g><g><g><g><path d="M1003 63.979C1002.45 63.979 1002 64.4267 1002 64.979L1001.99 115 997 115 997 87 995 87 995 115 990 115 990 64.979C990 64.4267 989.552 63.979 989 63.979 988.448 63.979 988 64.4267 988 64.979L988 117 1003.99 117 1004 64.979C1004 64.4267 1003.55 63.979 1003 63.979Z" stroke="#000000" stroke-width="1" stroke-linecap="butt" stroke-linejoin="miter" stroke-miterlimit="4" stroke-opacity="1" fill="#000000" fill-rule="nonzero" fill-opacity="1"/><path d="M996 51C999.866 51 1003 47.866 1003 44 1003 40.134 999.866 37 996 37 992.134 37 989 40.134 989 44 989.004 47.8642 992.136 50.9956 996 51ZM996 39C998.761 39 1001 41.2386 1001 44 1001 46.7614 998.761 49 996 49 993.239 49 991 46.7614 991 44 991.003 41.2399 993.24 39.0033 996 39Z" stroke="#000000" stroke-width="1" stroke-linecap="butt" stroke-linejoin="miter" stroke-miterlimit="4" stroke-opacity="1" fill="#000000" fill-rule="nonzero" fill-opacity="1"/><path d="M1010.07 61.409C1009.99 60.7744 1009.79 60.1591 1009.5 59.591 1009.29 59.2017 1009.04 58.8356 1008.75 58.499 1005.43 55.0083 1000.83 53.0226 996.008 53 994.102 52.9946 992.209 53.3093 990.408 53.931 987.662 54.8466 985.188 56.4316 983.208 58.543 982.937 58.8678 982.699 59.2192 982.499 59.592 982.205 60.1602 982.014 60.7755 981.933 61.41L979.033 81.217C978.767 82.479 979.066 83.7942 979.852 84.817 980.601 85.6298 981.675 86.064 982.778 86 983.33 86 983.778 85.5523 983.778 85 983.778 84.4477 983.33 84 982.778 84 982.257 84.0492 981.741 83.8684 981.364 83.505 980.973 82.9148 980.846 82.1876 981.016 81.5L983.911 61.7C983.96 61.2954 984.078 60.9023 984.261 60.538 984.387 60.3025 984.535 60.0792 984.703 59.871 987.652 56.778 991.734 55.0193 996.008 55 997.695 54.9963 999.37 55.2769 1000.96 55.83 1003.36 56.6248 1005.52 57.9988 1007.26 59.83 1007.44 60.0502 1007.6 60.2884 1007.74 60.541 1007.92 60.9055 1008.04 61.299 1008.09 61.704L1010.98 81.496C1011.15 82.1863 1011.03 82.9169 1010.64 83.51 1010.26 83.8716 1009.74 84.0506 1009.22 84 1008.67 84 1008.22 84.4477 1008.22 85 1008.22 85.5523 1008.67 86 1009.22 86 1010.32 86.0636 1011.4 85.6303 1012.15 84.819 1012.93 83.7931 1013.23 82.4741 1012.96 81.209Z" stroke="#000000" stroke-width="1" stroke-linecap="butt" stroke-linejoin="miter" stroke-miterlimit="4" stroke-opacity="1" fill="#000000" fill-rule="nonzero" fill-opacity="1"/><path d="M1020 35C1019.45 35 1019 35.4477 1019 36L1019 118C1019 118.552 1019.45 119 1020 119 1020.55 119 1021 118.552 1021 118L1021 36C1021 35.4477 1020.55 35 1020 35Z" stroke="#000000" stroke-width="1" stroke-linecap="butt" stroke-linejoin="miter" stroke-miterlimit="4" stroke-opacity="1" fill="#000000" fill-rule="nonzero" fill-opacity="1"/><path d="M1044.02 51.076C1047.91 51.076 1051.06 47.925 1051.06 44.038 1051.06 40.151 1047.91 37 1044.02 37 1040.13 37 1036.98 40.151 1036.98 44.038 1036.99 47.9232 1040.14 51.0716 1044.02 51.076ZM1044.02 39C1046.8 39 1049.06 41.2556 1049.06 44.038 1049.06 46.8204 1046.8 49.076 1044.02 49.076 1041.24 49.076 1038.98 46.8204 1038.98 44.038 1038.99 41.257 1041.24 39.0033 1044.02 39Z" stroke="#000000" stroke-width="1" stroke-linecap="butt" stroke-linejoin="miter" stroke-miterlimit="4" stroke-opacity="1" fill="#000000" fill-rule="nonzero" fill-opacity="1"/><path d="M1052.02 74.864 1052.02 64.979C1052.02 64.4267 1051.57 63.979 1051.02 63.979 1050.47 63.979 1050.02 64.4267 1050.02 64.979L1050.02 75 1054.7 92 1033.34 92 1037.98 75.268 1038.02 64.979C1038.02 64.4267 1037.57 63.979 1037.02 63.979 1036.47 63.979 1036.02 64.4267 1036.02 64.979L1036.02 74.864 1030.71 94 1036.02 94 1036.02 117 1052.01 117 1052.02 94 1057.34 94ZM1038.02 94 1043.02 94 1043.02 115 1038.02 115ZM1050.01 115 1045.02 115 1045.02 94 1050.02 94Z" stroke="#000000" stroke-width="1" stroke-linecap="butt" stroke-linejoin="miter" stroke-miterlimit="4" stroke-opacity="1" fill="#000000" fill-rule="nonzero" fill-opacity="1"/><path d="M1060.93 81.221 1058.05 61.486C1057.96 60.8534 1057.77 60.2398 1057.48 59.673 1057.27 59.2842 1057.02 58.9188 1056.73 58.583 1054.77 56.5015 1052.32 54.9388 1049.61 54.035 1045.99 52.7943 1042.06 52.7943 1038.44 54.035 1035.71 54.9469 1033.24 56.5261 1031.27 58.63 1031 58.9541 1030.76 59.3053 1030.56 59.678 1030.27 60.2432 1030.08 60.8552 1030 61.486L1027.11 81.229C1026.79 83.544 1027.68 85.256 1029.48 85.809 1030 85.9824 1030.57 85.698 1030.74 85.1736 1030.92 84.6493 1030.63 84.0836 1030.11 83.9102 1030.09 83.9055 1030.08 83.9011 1030.06 83.897 1029.23 83.642 1028.91 82.836 1029.09 81.51L1031.97 61.776C1032.02 61.3726 1032.14 60.9807 1032.32 60.618 1032.45 60.3827 1032.6 60.1603 1032.76 59.954 1034.51 58.1075 1036.68 56.7224 1039.09 55.923 1040.68 55.3765 1042.35 55.099 1044.03 55.102 1045.71 55.0949 1047.38 55.3742 1048.97 55.928 1051.35 56.7197 1053.51 58.0878 1055.24 59.911 1055.42 60.1293 1055.58 60.3663 1055.72 60.618 1055.9 60.9806 1056.02 61.3721 1056.07 61.775L1058.95 81.5C1059.14 82.859 1058.79 83.67 1057.93 83.91 1057.39 84.0569 1057.08 84.6075 1057.23 85.1399 1057.35 85.5733 1057.74 85.8736 1058.19 85.874 1058.28 85.8738 1058.37 85.8617 1058.46 85.838 1060.33 85.321 1061.26 83.6 1060.93 81.221Z" stroke="#000000" stroke-width="1" stroke-linecap="butt" stroke-linejoin="miter" stroke-miterlimit="4" stroke-opacity="1" fill="#000000" fill-rule="nonzero" fill-opacity="1"/></g></g></g></g></g></svg>