<svg width="367" height="413" xmlns="http://www.w3.org/2000/svg" xmlns:xlink="http://www.w3.org/1999/xlink" xml:space="preserve" overflow="hidden"><g transform="translate(-737 -1072)"><g><g><g><g><path d="M1007.06 1197.31 995.375 1185.62 985.75 1195.25 997.438 1206.94 986.438 1217.94 974.75 1206.25 965.125 1215.88 976.813 1227.56 965.813 1238.56 954.125 1226.88 944.5 1236.5 956.188 1248.19 945.531 1258.84 922.156 1235.47 994 1163.62 1017.38 1187 1007.06 1197.31ZM1073.41 1148.84 1032.16 1107.59C1028.03 1103.47 1021.5 1103.47 1017.72 1107.59 1013.59 1111.72 1013.59 1118.25 1017.72 1122.03L1026.31 1130.62 1008.09 1148.84 994 1134.75 987.469 1128.22C983.344 1124.09 976.813 1124.09 973.031 1128.22 968.906 1132.34 968.906 1138.88 973.031 1142.66L979.563 1149.19 888.813 1239.94C881.938 1246.81 877.813 1256.09 877.813 1266.06 877.813 1269.84 878.5 1273.62 879.531 1277.41L861.656 1295.28C856.844 1300.09 855.469 1307.31 857.875 1313.5L803.563 1367.81C800.813 1370.56 800.813 1374.69 803.563 1377.44 804.938 1378.81 806.656 1379.5 808.375 1379.5 810.094 1379.5 811.813 1378.81 813.188 1377.44L867.5 1323.12C873.688 1325.53 880.906 1324.16 885.719 1319.34L903.594 1301.47C907.375 1302.5 911.156 1303.19 914.938 1303.19 924.563 1303.19 933.844 1299.75 941.063 1292.19L1031.81 1201.44 1038.34 1207.97C1040.41 1210.03 1043.16 1211.06 1045.56 1211.06 1047.97 1211.06 1050.72 1210.03 1052.78 1207.97 1056.91 1203.84 1056.91 1197.31 1052.78 1193.53L1046.25 1187 1032.16 1172.91 1050.38 1154.69 1058.97 1163.28C1061.03 1165.34 1063.78 1166.38 1066.19 1166.38 1068.59 1166.38 1071.34 1165.34 1073.41 1163.28 1077.53 1159.16 1077.53 1152.97 1073.41 1148.84Z" fill="#000000" fill-rule="nonzero" fill-opacity="1"/></g></g></g><g><g><g><path d="M61.5 12.8125C61.5 12.8125 29.4688 57.9125 29.4688 78.1563 29.4688 95.8376 43.8188 110.188 61.5 110.188 79.1813 110.188 93.5313 95.8376 93.5313 78.1563 93.5313 57.7844 61.5 12.8125 61.5 12.8125Z" fill="#D2B1AD" fill-rule="nonzero" fill-opacity="1" transform="matrix(1 0 0 1.00813 738 1361)"/></g></g></g></g></g></svg>