<svg width="117" height="118" xmlns="http://www.w3.org/2000/svg" xmlns:xlink="http://www.w3.org/1999/xlink" xml:space="preserve" overflow="hidden"><g transform="translate(-344 -372)"><g><g><g><g><path d="M26.6998 58.603C26.6998 59.604 25.8883 60.4155 24.8873 60.4155 23.8863 60.4155 23.0748 59.604 23.0748 58.603 23.0748 57.6019 23.8863 56.7905 24.8873 56.7905 25.8883 56.7905 26.6998 57.6019 26.6998 58.603Z" fill="#000000" fill-rule="nonzero" fill-opacity="1" transform="matrix(1 0 0 1.00862 345 373)"/><path d="M79.7558 47.7276C79.7558 48.7286 78.9443 49.5401 77.9433 49.5401 76.9423 49.5401 76.1308 48.7286 76.1308 47.7276 76.1308 46.7266 76.9423 45.9151 77.9433 45.9151 78.9443 45.9151 79.7558 46.7266 79.7558 47.7276Z" fill="#000000" fill-rule="nonzero" fill-opacity="1" transform="matrix(1 0 0 1.00862 345 373)"/><path d="M88.2141 87.6031C88.2141 88.6041 87.4027 89.4156 86.4016 89.4156 85.4006 89.4156 84.5891 88.6041 84.5891 87.6031 84.5891 86.6021 85.4006 85.7906 86.4016 85.7906 87.4027 85.7906 88.2141 86.6021 88.2141 87.6031Z" fill="#000000" fill-rule="nonzero" fill-opacity="1" transform="matrix(1 0 0 1.00862 345 373)"/><path d="M42.1555 45.4587 43.9083 43.7059 42.1996 41.9973 40.4469 43.7501C40.299 43.6779 40.1466 43.6154 39.9906 43.5631L39.9906 41.0816 37.574 41.0816 37.574 43.563C37.4177 43.615 37.2651 43.6776 37.1171 43.7501L35.3644 41.9973 33.6557 43.706 35.4085 45.4587C35.3361 45.6065 35.2738 45.7589 35.2216 45.915L32.7406 45.915 32.7406 48.3316 35.2215 48.3316C35.2737 48.4878 35.3361 48.6404 35.4085 48.7883L33.6557 50.5412 35.3644 52.2499 37.1172 50.497C37.2652 50.5694 37.4177 50.6318 37.574 50.684L37.574 53.165 39.9906 53.165 39.9906 50.6839C40.1466 50.6317 40.299 50.5694 40.4467 50.497L42.1996 52.2499 43.9083 50.5412 42.1554 48.7883C42.2277 48.6404 42.2903 48.4879 42.3425 48.3316L44.824 48.3316 44.824 45.915 42.3424 45.915C42.2902 45.759 42.2277 45.6065 42.1555 45.4587ZM38.7819 48.4828C38.0312 48.4828 37.4226 47.8742 37.4226 47.1234 37.4226 46.3727 38.0312 45.7641 38.7819 45.7641 39.5328 45.7641 40.1413 46.3727 40.1413 47.1234 40.1406 47.8738 39.5324 48.482 38.7819 48.4828Z" fill="#000000" fill-rule="nonzero" fill-opacity="1" transform="matrix(1 0 0 1.00862 345 373)"/><path d="M33.5978 74.5586 35.9508 72.2057 34.2422 70.4971 31.8891 72.8498C31.4062 72.5487 30.8773 72.3283 30.3234 72.1974L30.3234 68.8733 27.9067 68.8733 27.9067 72.1974C27.3528 72.3283 26.8239 72.5487 26.3409 72.8498L23.9878 70.4971 22.2793 72.2057 24.6324 74.5586C24.3314 75.0415 24.1111 75.5701 23.9801 76.1239L20.6561 76.1239 20.6561 78.5406 23.98 78.5406C24.111 79.0945 24.3314 79.6234 24.6325 80.1065L22.2793 82.4594 23.9878 84.168 26.3409 81.8152C26.824 82.1162 27.3528 82.3364 27.9067 82.4675L27.9067 85.7912 30.3234 85.7912 30.3234 82.4677C30.8773 82.3367 31.406 82.1163 31.889 81.8152L34.2421 84.1682 35.9508 82.4594 33.5977 80.1065C33.8988 79.6234 34.1192 79.0945 34.2502 78.5406L37.574 78.5406 37.574 76.1239 34.2502 76.1239C34.1192 75.5701 33.8988 75.0415 33.5978 74.5586ZM29.1152 80.2027C27.5299 80.2027 26.2449 78.9176 26.2449 77.3325 26.2449 75.7473 27.5299 74.4623 29.115 74.4623 30.7002 74.4623 31.9852 75.7473 31.9853 77.3324 31.9835 78.9169 30.6995 80.2008 29.1152 80.2027Z" fill="#000000" fill-rule="nonzero" fill-opacity="1" transform="matrix(1 0 0 1.00862 345 373)"/><path d="M92.3696 62.8016 94.8724 60.2987 93.1638 58.5902 90.6609 61.093C90.0976 60.7288 89.4735 60.4685 88.8184 60.3244L88.8184 56.79 86.4018 56.79 86.4018 60.3244C85.7466 60.4685 85.1226 60.7288 84.5592 61.093L82.0564 58.5902 80.3476 60.2987 82.8505 62.8016C82.4864 63.365 82.226 63.989 82.0817 64.6441L78.5476 64.6441 78.5476 67.0608 82.0817 67.0608C82.2259 67.7161 82.4861 68.3402 82.8503 68.9038L80.3476 71.4062 82.0564 73.1148 84.5589 70.6121C85.1224 70.9763 85.7465 71.2367 86.4016 71.3808L86.4016 74.915 88.8183 74.915 88.8183 71.3808C89.4736 71.2367 90.0977 70.9764 90.661 70.6122L93.1637 73.1149 94.8724 71.4062 92.3696 68.9034C92.7338 68.3401 92.9941 67.716 93.1381 67.0608L96.6725 67.0608 96.6725 64.6441 93.1381 64.6441C92.9938 63.9891 92.7336 63.365 92.3696 62.8016ZM87.61 69.1C85.8164 69.1 84.3626 67.6461 84.3626 65.8526 84.3626 64.0592 85.8164 62.6052 87.61 62.6052 89.4034 62.6052 90.8574 64.0592 90.8574 65.8526 90.8553 67.6453 89.4027 69.0981 87.61 69.1Z" fill="#000000" fill-rule="nonzero" fill-opacity="1" transform="matrix(1 0 0 1.00862 345 373)"/><path d="M75.6929 23.0122C74.4287 22.4418 73.0699 22.1102 71.6849 22.0342 70.5316 21.9311 69.4316 22.5395 68.9057 23.571 67.5154 26.3517 67.958 35.8436 66.9919 37.556 66.6754 38.3544 65.896 38.8721 65.0372 38.8546 64.8857 38.8546 64.7293 38.8443 64.5672 38.8292 62.9443 38.6771 62.9443 35.0521 62.9443 35.0521L62.9443 10.8854 60.5276 10.8854 60.5276 13.3021 55.6943 13.3021 55.6943 10.8854 53.2776 10.8854 53.2776 35.0521C53.2776 35.0521 53.2776 38.6771 51.6544 38.8292 51.4923 38.8443 51.3359 38.8543 51.1845 38.8543 50.3259 38.8721 49.5465 38.3543 49.2299 37.556 48.2639 35.8436 48.7065 26.3517 47.3162 23.571 46.7903 22.5395 45.6902 21.9312 44.537 22.0342 43.1521 22.1102 41.7932 22.4418 40.5289 23.0122 22.5453 30.8347 9.77749 50.5372 9.77749 73.6224 9.73201 83.8724 12.3503 93.9582 17.3757 102.892 17.6327 103.233 18.9554 104.905 20.2049 104.905 29.3288 104.905 44.7673 95.6356 47.5479 87.2938 50.3285 78.9519 49.0827 62.384 52.1821 57.6338 53.4855 55.4798 55.6387 53.9771 58.11 53.4968 60.5818 53.977 62.7355 55.4797 64.0395 57.6338 67.1386 62.384 65.8928 78.9518 68.6735 87.2938 71.4541 95.6357 86.8928 104.905 96.0168 104.905 97.266 104.905 98.589 103.233 98.8457 102.892 103.871 93.9582 106.49 83.8724 106.444 73.6224 106.444 50.5372 93.676 30.8347 75.6929 23.0122ZM55.6941 15.7187 60.5275 15.7187 60.5275 18.1354 55.6941 18.1354ZM55.6941 20.5521 60.5275 20.5521 60.5275 22.9687 55.6941 22.9687ZM55.6941 25.3854 60.5275 25.3854 60.5275 27.8021 55.6941 27.8021ZM55.6941 30.2187 60.5275 30.2187 60.5275 32.6354 55.6941 32.6354ZM96.8276 101.551C96.552 101.912 96.2221 102.227 95.8497 102.487 87.1704 102.373 73.2877 93.4943 70.9661 86.5296 69.7535 82.8915 69.3506 77.3383 68.9609 71.9677 68.4697 65.1979 68.0455 59.3513 66.0635 56.3132 64.3911 53.5838 61.6388 51.6926 58.4913 51.1103L58.1101 51.0494 57.7289 51.1103C54.5817 51.6927 51.8299 53.5839 50.1582 56.3132 48.1759 59.3513 47.7518 65.1982 47.2605 71.9685 46.8708 77.3387 46.4678 82.8919 45.2552 86.5296 42.9335 93.4943 29.051 102.373 20.3719 102.487 19.9992 102.227 19.6693 101.911 19.3934 101.55 14.6335 93.0144 12.154 83.3958 12.1941 73.6225 12.1941 52.2992 23.9684 32.8511 41.4386 25.2511 42.413 24.7951 43.4635 24.5239 44.5368 24.4509 45.0542 24.4509 45.1074 24.5577 45.1546 24.6518 45.6896 25.722 45.9167 29.4233 46.067 31.8726 46.2928 35.5555 46.4424 37.5336 47.125 38.7432 47.8755 40.2999 49.4565 41.2843 51.1845 41.271 51.4084 41.271 51.6399 41.2577 51.8798 41.2353 53.216 41.094 54.3686 40.2352 54.8862 38.9953 55.2671 38.1104 55.5224 37.1763 55.6448 36.2205L55.6494 36.2205C55.6708 36.0553 55.6854 35.9049 55.6943 35.7719L55.6943 35.0521 60.5276 35.0521 60.5276 35.7748C60.5373 35.9088 60.5525 36.0586 60.5735 36.2205L60.5779 36.2205C60.6995 37.1727 60.9527 38.1033 61.3303 38.9859 61.8465 40.2304 63.0015 41.0931 64.3412 41.2352 64.5814 41.2577 64.813 41.2711 65.0371 41.2711 66.7653 41.2843 68.3461 40.3 69.0967 38.7433 69.7792 37.5335 69.9289 35.5553 70.1549 31.8726 70.3051 29.4233 70.5321 25.722 71.0673 24.6517 71.1143 24.5576 71.1676 24.4509 71.6849 24.4509 72.7389 24.52 73.7709 24.7836 74.729 25.2283 92.2534 32.8512 104.027 52.2993 104.027 73.6224 104.068 83.3959 101.588 93.0148 96.8276 101.551Z" fill="#000000" fill-rule="nonzero" fill-opacity="1" transform="matrix(1 0 0 1.00862 345 373)"/></g></g></g></g></g></svg>