<svg width="79" height="79" xmlns="http://www.w3.org/2000/svg" xmlns:xlink="http://www.w3.org/1999/xlink" xml:space="preserve" overflow="hidden"><g transform="translate(-910 -305)"><g><g><g><g><path d="M937.812 331.025C937.812 335.064 934.539 338.337 930.5 338.337 926.461 338.337 923.188 335.064 923.188 331.025 923.188 326.986 926.461 323.712 930.5 323.712 934.539 323.712 937.812 326.986 937.812 331.025Z" fill="#000000" fill-rule="nonzero" fill-opacity="1"/><path d="M976.812 331.025C976.812 335.064 973.539 338.337 969.5 338.337 965.461 338.337 962.188 335.064 962.188 331.025 962.188 326.986 965.461 323.712 969.5 323.712 973.539 323.712 976.812 326.986 976.812 331.025Z" fill="#000000" fill-rule="nonzero" fill-opacity="1"/><path d="M964.625 366.288 964.625 358.975C964.625 357.837 964.138 356.7 963.162 356.05 961.213 354.425 958.612 353.288 956.013 352.638 954.225 352.15 952.112 351.663 950 351.663 948.05 351.663 945.938 351.987 943.987 352.638 941.388 353.288 938.95 354.587 936.838 356.05 935.862 356.862 935.375 357.837 935.375 358.975L935.375 366.288 964.625 366.288Z" fill="#000000" fill-rule="nonzero" fill-opacity="1"/><path d="M957.312 342.4C957.312 346.439 954.039 349.712 950 349.712 945.961 349.712 942.688 346.439 942.688 342.4 942.688 338.361 945.961 335.087 950 335.087 954.039 335.087 957.312 338.361 957.312 342.4Z" fill="#000000" fill-rule="nonzero" fill-opacity="1"/><path d="M982.662 344.675C980.713 343.05 978.112 341.913 975.513 341.263 973.725 340.775 971.612 340.288 969.5 340.288 967.55 340.288 965.438 340.612 963.487 341.263 962.513 341.587 961.537 341.913 960.562 342.4L960.562 342.562C960.562 345.325 959.425 347.925 957.638 349.712 960.725 350.688 963.162 351.987 965.112 353.45 965.6 353.938 966.088 354.263 966.412 354.913L984.125 354.913 984.125 347.6C984.125 346.462 983.638 345.325 982.662 344.675Z" fill="#000000" fill-rule="nonzero" fill-opacity="1"/><path d="M934.888 353.45 934.888 353.45C937.162 351.825 939.763 350.525 942.362 349.712 940.575 347.763 939.438 345.325 939.438 342.562 939.438 342.4 939.438 342.4 939.438 342.237 938.463 341.913 937.487 341.425 936.513 341.263 934.725 340.775 932.612 340.288 930.5 340.288 928.55 340.288 926.438 340.612 924.487 341.263 921.888 342.075 919.45 343.212 917.338 344.675 916.362 345.325 915.875 346.462 915.875 347.6L915.875 354.913 933.425 354.913C933.912 354.263 934.237 353.938 934.888 353.45Z" fill="#000000" fill-rule="nonzero" fill-opacity="1"/></g></g></g></g></g></svg>