<svg width="97" height="96" xmlns="http://www.w3.org/2000/svg" xmlns:xlink="http://www.w3.org/1999/xlink" xml:space="preserve" overflow="hidden"><g transform="translate(-833 -372)"><g><g><g><g><path d="M918.5 400C918.5 403.314 915.814 406 912.5 406 909.186 406 906.5 403.314 906.5 400 906.5 396.686 909.186 394 912.5 394 915.814 394 918.5 396.686 918.5 400Z" fill="#000000" fill-rule="nonzero" fill-opacity="1"/><path d="M924.9 424.1 921.9 415 920.9 412.1C920.8 411.8 920.7 411.6 920.5 411.3 918.9 409.6 916.8 408.5 914.4 408.1 913.7 408 913.1 408 912.5 408 911.9 408 911.3 408 910.8 408.1 908.4 408.5 906.3 409.6 904.7 411.3 904.5 411.5 904.3 411.8 904.3 412.1L903.3 415 902.6 417.1 901.8 415 900.8 412.1C900.7 411.8 900.6 411.6 900.4 411.3 898.8 409.6 896.7 408.5 894.3 408.1 893.7 408 893.1 408 892.5 408 891.9 408 891.3 408 890.8 408.1 888.4 408.5 886.3 409.6 884.7 411.3 884.5 411.5 884.3 411.8 884.3 412.1L883.3 415 882.6 417.1 881.8 415 880.8 412.1C880.7 411.8 880.6 411.6 880.4 411.3 878.8 409.6 876.7 408.5 874.3 408.1 873.7 408 873.1 408 872.5 408 871.9 408 871.3 408 870.8 408.1 868.4 408.5 866.3 409.6 864.7 411.3 864.5 411.5 864.3 411.8 864.3 412.1L863.3 415 862.6 417.1 861.8 415 860.8 412.1C860.7 411.8 860.6 411.6 860.4 411.3 858.8 409.6 856.7 408.5 854.3 408.1 853.6 408 853.1 408 852.5 408 851.9 408 851.3 408 850.8 408.1 848.4 408.5 846.3 409.6 844.7 411.3 844.5 411.5 844.3 411.8 844.3 412.1L843.3 415 840.3 424.1C839.9 425.3 840.4 426.7 841.6 427.3 842 427.5 842.3 427.5 842.7 427.5 843.7 427.5 844.7 426.8 845.1 425.8L846.7 420.9 846.7 425.9 843.7 433.9 846.7 433.9 846.7 442.9 851.7 442.9 851.7 433.9 853.7 433.9 853.7 442.9 858.7 442.9 858.7 433.9 861.7 433.9 858.7 425.7 858.7 420.8 860.3 425.7C860.6 426.7 861.6 427.4 862.7 427.4 862.7 427.4 862.7 427.4 862.7 427.4 862.7 427.4 862.7 427.4 862.7 427.4 863.7 427.4 864.7 426.7 865.1 425.7L866.7 420.8 866.7 443 871.7 443 871.7 428 873.7 428 873.7 443 878.7 443 878.7 420.9 880.3 425.8C880.7 426.9 881.6 427.5 882.7 427.5 882.7 427.5 882.7 427.5 882.7 427.5 883.7 427.5 884.7 426.8 885.1 425.8L886.7 420.9 886.7 425.8 883.7 434 886.7 434 886.7 443 891.7 443 891.7 434 893.7 434 893.7 443 898.7 443 898.7 434 901.7 434 898.7 426 898.7 421 900.3 425.9C900.6 426.9 901.6 427.6 902.7 427.6 902.7 427.6 902.7 427.6 902.7 427.6 902.7 427.6 902.7 427.6 902.7 427.6 902.7 427.6 902.7 427.6 902.7 427.6 902.7 427.6 902.7 427.6 902.7 427.6 903.7 427.6 904.7 426.9 905.1 425.9L906.7 421 906.7 443 911.7 443 911.7 428 913.7 428 913.7 443 918.7 443 918.7 420.9 920.3 425.8C920.6 426.8 921.6 427.5 922.7 427.5 923.1 427.5 923.4 427.4 923.8 427.3 924.8 426.7 925.3 425.3 924.9 424.1Z" fill="#000000" fill-rule="nonzero" fill-opacity="1"/><path d="M858.5 400C858.5 403.314 855.814 406 852.5 406 849.186 406 846.5 403.314 846.5 400 846.5 396.686 849.186 394 852.5 394 855.814 394 858.5 396.686 858.5 400Z" fill="#000000" fill-rule="nonzero" fill-opacity="1"/><path d="M898.5 400C898.5 403.314 895.814 406 892.5 406 889.186 406 886.5 403.314 886.5 400 886.5 396.686 889.186 394 892.5 394 895.814 394 898.5 396.686 898.5 400Z" fill="#000000" fill-rule="nonzero" fill-opacity="1"/><path d="M878.5 400C878.5 403.314 875.814 406 872.5 406 869.186 406 866.5 403.314 866.5 400 866.5 396.686 869.186 394 872.5 394 875.814 394 878.5 396.686 878.5 400Z" fill="#000000" fill-rule="nonzero" fill-opacity="1"/></g></g></g></g></g></svg>