<svg width="97" height="98" xmlns="http://www.w3.org/2000/svg" xmlns:xlink="http://www.w3.org/1999/xlink" xml:space="preserve" overflow="hidden"><g transform="translate(-685 -366)"><g><g><g><g><path d="M734 388.006C731.791 388.006 730 389.797 730 392.006 730 394.215 731.791 396.006 734 396.006 736.209 396.006 738 394.215 738 392.006 737.993 389.8 736.206 388.013 734 388.006ZM734 394.006C732.895 394.006 732 393.111 732 392.006 732 390.901 732.895 390.006 734 390.006 735.105 390.006 736 390.901 736 392.006 736.001 393.111 735.107 394.007 734.002 394.008 734.001 394.008 734.001 394.008 734 394.008Z" fill="#000000" fill-rule="nonzero" fill-opacity="1"/><path d="M765 442.021 765 439 761 439 761 408 765 408 765 403 770 403 770 401 734 379 698 401 698 403 703 403 703 408 707 408 707 439 703 439 703 442.021 696 447.021 696 451 772 451 772 447.022ZM759 439 757 439 757 408 759 408ZM713 408 719 408 719 439 713 439ZM721 408 723 408 723 439 721 439ZM725 408 731 408 731 439 725 439ZM733 408 735 408 735 439 733 439ZM737 408 743 408 743 439 737 439ZM745 408 747 408 747 439 745 439ZM749 408 755 408 755 439 749 439ZM701.866 400.981 734 381.347 766.134 400.981C766.139 400.983 766.142 400.988 766.14 400.994 766.139 400.997 766.137 400.999 766.134 401L701.872 401C701.866 400.999 701.862 400.994 701.862 400.988 701.863 400.985 701.864 400.983 701.866 400.981ZM705 403 763 403 763 406 705 406ZM709 408 711 408 711 439 709 439ZM705 443.05 705 441 763 441 763 443.05 763.837 443.65 764.329 444.002 703.671 444.002 704.164 443.65ZM770 449 698 449 698 448.052 700.871 446 767.134 446 770 448.052Z" fill="#000000" fill-rule="nonzero" fill-opacity="1"/></g></g></g></g></g></svg>