<svg width="96" height="98" xmlns="http://www.w3.org/2000/svg" xmlns:xlink="http://www.w3.org/1999/xlink" xml:space="preserve" overflow="hidden"><g transform="translate(-912 -182)"><g><g><g><g><path d="M976 213C976 221.837 968.837 229 960 229 951.163 229 944 221.837 944 213 944 204.163 951.163 197 960 197 968.837 197 976 204.163 976 213Z" stroke="#000000" stroke-width="3" stroke-linecap="butt" stroke-linejoin="miter" stroke-miterlimit="4" stroke-opacity="1" fill="#D2B1AD" fill-rule="nonzero" fill-opacity="1"/><path d="M992 265 992 249C992 246.6 990.8 244.2 988.8 242.6 984.4 239 978.8 236.6 973.2 235 969.2 233.8 964.8 233 960 233 955.6 233 951.2 233.8 946.8 235 941.2 236.6 935.6 239.4 931.2 242.6 929.2 244.2 928 246.6 928 249L928 265 992 265Z" stroke="#000000" stroke-width="3" stroke-linecap="butt" stroke-linejoin="miter" stroke-miterlimit="4" stroke-opacity="1" fill="#D2B1AD" fill-rule="nonzero" fill-opacity="1"/></g></g></g></g></g></svg>