<svg width="82" height="83" xmlns="http://www.w3.org/2000/svg" xmlns:xlink="http://www.w3.org/1999/xlink" xml:space="preserve" overflow="hidden"><g transform="translate(-748 -525)"><g><g><g><g><path d="M808.646 563.583C805.315 563.583 802.667 560.935 802.667 557.604 802.667 554.273 805.315 551.625 808.646 551.625 811.977 551.625 814.625 554.273 814.625 557.604 814.625 560.935 811.977 563.583 808.646 563.583ZM818.042 557.604C818.042 552.394 813.856 548.208 808.646 548.208 803.435 548.208 799.25 552.394 799.25 557.604 799.25 561.875 802.154 565.548 806.083 566.658L806.083 586.646C806.083 593.735 800.36 599.458 793.271 599.458 786.181 599.458 780.458 593.735 780.458 586.646L780.458 577.933C789.171 576.652 795.833 569.221 795.833 560.167 795.833 558.885 795.15 557.775 794.125 557.263L794.125 536.25C794.125 533.688 792.16 531.552 789.683 531.21 789.342 530.185 788.402 529.417 787.292 529.417L786.438 529.417C784.558 529.417 783.021 530.954 783.021 532.833 783.021 534.713 784.558 536.25 786.438 536.25L787.292 536.25C788.317 536.25 789.256 535.567 789.683 534.713 790.281 534.969 790.708 535.567 790.708 536.25L790.708 557.263C789.683 557.86 789 558.971 789 560.167 789 566.317 784.046 571.271 777.896 571.271 771.746 571.271 766.792 566.317 766.792 560.167 766.792 558.885 766.108 557.775 765.083 557.263L765.083 536.25C765.083 535.567 765.51 534.969 766.108 534.713 766.535 535.652 767.39 536.25 768.5 536.25L769.354 536.25C771.233 536.25 772.771 534.713 772.771 532.833 772.771 530.954 771.233 529.417 769.354 529.417L768.5 529.417C767.39 529.417 766.45 530.185 766.108 531.21 763.631 531.552 761.667 533.688 761.667 536.25L761.667 557.263C760.642 557.86 759.958 558.971 759.958 560.167 759.958 569.221 766.621 576.652 775.333 577.933L775.333 586.646C775.333 596.554 783.362 604.583 793.271 604.583 803.179 604.583 811.208 596.554 811.208 586.646L811.208 566.658C815.138 565.548 818.042 561.875 818.042 557.604Z" fill="#000000" fill-rule="nonzero" fill-opacity="1"/><path d="M812.917 557.604C812.917 559.963 811.005 561.875 808.646 561.875 806.287 561.875 804.375 559.963 804.375 557.604 804.375 555.245 806.287 553.333 808.646 553.333 811.005 553.333 812.917 555.245 812.917 557.604Z" fill="#000000" fill-rule="nonzero" fill-opacity="1"/></g></g></g></g></g></svg>