<svg width="821" height="811" xmlns="http://www.w3.org/2000/svg" xmlns:xlink="http://www.w3.org/1999/xlink" xml:space="preserve" overflow="hidden"><defs><clipPath id="clip0"><rect x="1851" y="976" width="821" height="811"/></clipPath><clipPath id="clip1"><rect x="1851" y="976" width="821" height="811"/></clipPath><clipPath id="clip2"><rect x="2302" y="1192" width="367" height="455"/></clipPath><clipPath id="clip3"><rect x="2302" y="1192" width="367" height="455"/></clipPath><clipPath id="clip4"><rect x="2069" y="1456" width="163" height="171"/></clipPath><clipPath id="clip5"><rect x="2069" y="1456" width="163" height="171"/></clipPath><clipPath id="clip6"><rect x="1971" y="1345" width="82" height="309"/></clipPath><clipPath id="clip7"><rect x="1971" y="1345" width="82" height="309"/></clipPath><clipPath id="clip8"><rect x="1952" y="1336" width="280" height="133"/></clipPath><clipPath id="clip9"><rect x="1952" y="1336" width="280" height="133"/></clipPath><clipPath id="clip10"><rect x="2142" y="1323" width="280" height="333"/></clipPath><clipPath id="clip11"><rect x="2142" y="1324" width="279" height="332"/></clipPath><clipPath id="clip12"><rect x="2191" y="1402" width="63" height="276"/></clipPath><clipPath id="clip13"><rect x="2191" y="1402" width="63" height="276"/></clipPath><clipPath id="clip14"><rect x="2104" y="1328" width="280" height="210"/></clipPath><clipPath id="clip15"><rect x="2104" y="1328" width="280" height="210"/></clipPath><clipPath id="clip16"><rect x="2237" y="1202" width="216" height="277"/></clipPath><clipPath id="clip17"><rect x="2237" y="1202" width="216" height="277"/></clipPath><clipPath id="clip18"><rect x="2384" y="1327" width="200" height="119"/></clipPath><clipPath id="clip19"><rect x="2384" y="1327" width="200" height="119"/></clipPath><clipPath id="clip20"><rect x="2428" y="1205" width="57" height="277"/></clipPath><clipPath id="clip21"><rect x="2428" y="1205" width="57" height="277"/></clipPath><clipPath id="clip22"><rect x="1958" y="1490" width="328" height="210"/></clipPath><clipPath id="clip23"><rect x="1958" y="1490" width="328" height="210"/></clipPath></defs><g clip-path="url(#clip0)" transform="translate(-1851 -976)"><g clip-path="url(#clip1)"><g clip-path="url(#clip2)"><g clip-path="url(#clip3)"><g><path d="M476.566 93.6113C476.566 131.211 446.086 161.692 408.486 161.692 370.885 161.692 340.405 131.211 340.405 93.6113 340.405 56.0112 370.885 25.5303 408.486 25.5303 446.086 25.5303 476.566 56.0112 476.566 93.6113Z" fill="#000000" fill-rule="nonzero" fill-opacity="1" transform="matrix(1 0 0 1.11843 2077.53 1192)"/><path d="M594.006 444.228 546.349 241.687C544.647 234.879 541.243 228.071 536.137 222.965 515.713 205.945 491.885 194.031 464.652 185.521 445.93 182.116 427.208 178.712 408.486 178.712 389.763 178.712 371.041 182.116 352.319 187.223 325.086 194.031 301.258 207.647 280.834 224.667 275.728 229.773 272.324 236.581 270.622 243.389L222.965 445.93C222.965 447.632 221.263 451.036 221.263 454.44 221.263 473.162 236.581 488.481 255.303 488.481 270.622 488.481 284.238 476.566 287.642 462.95L323.384 314.874 323.384 791.441 391.465 791.441 391.465 485.077 425.506 485.077 425.506 791.441 493.587 791.441 493.587 313.172 529.329 461.248C532.733 474.864 546.349 486.779 561.668 486.779 580.39 486.779 595.708 471.46 595.708 452.738 595.708 449.334 594.006 445.93 594.006 444.228Z" fill="#000000" fill-rule="nonzero" fill-opacity="1" transform="matrix(1 0 0 1.11843 2077.53 1192)"/></g></g></g><g><g><g><path d="M2015.86 1244.81 2062.5 1244.81 2109.14 1244.81 2109.14 1229.69 2015.86 1229.69Z" fill="#000000" fill-rule="nonzero" fill-opacity="1"/><path d="M2015.86 1275.06 2062.5 1275.06 2109.14 1275.06 2109.14 1259.94 2015.86 1259.94Z" fill="#000000" fill-rule="nonzero" fill-opacity="1"/><path d="M2015.86 1305.31 2062.5 1305.31 2109.14 1305.31 2109.14 1290.19 2015.86 1290.19Z" fill="#000000" fill-rule="nonzero" fill-opacity="1"/></g></g></g><g><g><g><path d="M281.025 239.899 47.9799 239.899 47.9799 89.1055 281.025 89.1055 281.025 239.899ZM181.638 253.608 147.367 253.608C145.31 253.608 143.94 252.237 143.94 250.181 143.94 248.124 145.31 246.754 147.367 246.754L181.638 246.754C183.694 246.754 185.065 248.124 185.065 250.181 185.065 252.237 183.694 253.608 181.638 253.608ZM164.502 75.3969C166.559 75.3969 167.93 76.7678 167.93 78.8241 167.93 80.8803 166.559 82.2512 164.502 82.2512 162.446 82.2512 161.075 80.8803 161.075 78.8241 161.075 76.7678 162.446 75.3969 164.502 75.3969ZM287.879 68.5427 41.1256 68.5427C33.5859 68.5427 27.4171 74.7115 27.4171 82.2512L27.4171 246.754C27.4171 254.293 33.5859 260.462 41.1256 260.462L287.879 260.462C295.419 260.462 301.588 254.293 301.588 246.754L301.588 82.2512C301.588 74.7115 295.419 68.5427 287.879 68.5427Z" fill="#000000" fill-rule="nonzero" fill-opacity="1" transform="matrix(1.01141 0 0 1 1839.24 1103.13)"/></g></g></g><g><g><g><path d="M37.9166 59.2989C39.4124 59.2989 40.625 60.5115 40.625 62.0073L40.625 70.1323C40.625 71.628 39.4124 72.8406 37.9166 72.8406L29.7917 72.8406C28.2959 72.8406 27.0833 71.628 27.0833 70.1323L27.0833 62.0073C27.0833 60.5115 28.2959 59.2989 29.7917 59.2989Z" fill="#000000" fill-rule="nonzero" fill-opacity="1" transform="matrix(6.12323e-17 1 -1.01539 6.21744e-17 2019 1203)"/><path d="M65 55.2364C66.4957 55.2364 67.7083 56.449 67.7083 57.9448L67.7083 74.1948C67.7083 75.6905 66.4957 76.9031 65 76.9031L48.75 76.9031C47.2542 76.9031 46.0416 75.6905 46.0416 74.1948L46.0416 57.9448C46.0416 56.449 47.2542 55.2364 48.75 55.2364Z" fill="#000000" fill-rule="nonzero" fill-opacity="1" transform="matrix(6.12323e-17 1 -1.01539 6.21744e-17 2019 1203)"/><path d="M100.208 51.1739C101.704 51.1739 102.917 52.3865 102.917 53.8823L102.917 78.2573C102.917 79.753 101.704 80.9656 100.208 80.9656L75.8333 80.9656C74.3375 80.9656 73.125 79.753 73.125 78.2573L73.125 53.8823C73.125 52.3865 74.3375 51.1739 75.8333 51.1739Z" fill="#000000" fill-rule="nonzero" fill-opacity="1" transform="matrix(6.12323e-17 1 -1.01539 6.21744e-17 2019 1203)"/></g></g></g><g clip-path="url(#clip4)"><g clip-path="url(#clip5)"><g><path d="M32.4589 21.0028 78.0923 21.0028 78.0923 162.294 32.4589 162.294Z" fill="#000000" fill-rule="nonzero" fill-opacity="1" transform="matrix(3.61461 0 0 1 1655.37 1443.7)"/><path d="M105.205 21.0028 150.838 21.0028 150.838 162.294 105.205 162.294Z" fill="#000000" fill-rule="nonzero" fill-opacity="1" transform="matrix(3.61461 0 0 1 1655.37 1443.7)"/></g></g></g><g clip-path="url(#clip6)"><g clip-path="url(#clip7)"><g><path d="M58.464 37.8297 140.658 37.8297 140.658 292.32 58.464 292.32Z" fill="#000000" fill-rule="nonzero" fill-opacity="1" transform="matrix(1.00956 0 0 1 1762.92 1322.85)"/><path d="M189.492 37.8297 271.686 37.8297 271.686 292.32 189.492 292.32Z" fill="#000000" fill-rule="nonzero" fill-opacity="1" transform="matrix(1.00956 0 0 1 1762.92 1322.85)"/></g></g></g><g clip-path="url(#clip8)"><g clip-path="url(#clip9)"><g><path d="M188.123 95.1182 30.0151 95.1182 48.8273 76.3059C51.3638 73.7694 51.3638 69.7533 48.8273 67.4282 46.2909 64.8917 42.2747 64.8917 39.9496 67.4282L10.3573 97.0206C7.82083 99.557 7.82083 103.573 10.3573 105.898L39.9496 135.491C41.2179 136.759 42.9089 137.393 44.3885 137.393 45.8681 137.393 47.5591 136.759 48.8273 135.491 51.3638 132.954 51.3638 128.938 48.8273 126.613L30.0151 107.801 188.123 107.801C191.716 107.801 194.464 105.053 194.464 101.459 194.464 97.8661 191.716 95.1182 188.123 95.1182Z" fill="#000000" fill-rule="nonzero" fill-opacity="1" transform="matrix(-1.83697e-16 -1 1.37493 -2.52571e-16 1953 1539.92)"/></g></g></g><g clip-path="url(#clip10)"><g clip-path="url(#clip11)"><g><path d="M258.656 130.781 41.2688 130.781 67.1344 104.916C70.6219 101.428 70.6219 95.9063 67.1344 92.7094 63.6469 89.2219 58.125 89.2219 54.9282 92.7094L14.2406 133.397C10.7531 136.884 10.7531 142.406 14.2406 145.603L54.9282 186.291C56.6719 188.034 58.9969 188.906 61.0313 188.906 63.0657 188.906 65.3907 188.034 67.1344 186.291 70.6219 182.803 70.6219 177.281 67.1344 174.084L41.2688 148.219 258.656 148.219C263.597 148.219 267.375 144.441 267.375 139.5 267.375 134.559 263.597 130.781 258.656 130.781Z" fill="#000000" fill-rule="nonzero" fill-opacity="1" transform="matrix(-3.38599e-16 -1.84325 1 -1.83697e-16 2142 1838.27)"/></g></g></g><g clip-path="url(#clip12)"><g clip-path="url(#clip13)"><g><path d="M90.4708 45.7437 14.4347 45.7437 23.4818 36.6966C24.7016 35.4768 24.7016 33.5454 23.4818 32.4272 22.2619 31.2074 20.3305 31.2074 19.2123 32.4272L4.98098 46.6586C3.76115 47.8784 3.76115 49.8098 4.98098 50.928L19.2123 65.1593C19.8223 65.7692 20.6355 66.0742 21.347 66.0742 22.0586 66.0742 22.8718 65.7692 23.4818 65.1593 24.7016 63.9395 24.7016 62.0081 23.4818 60.8899L14.4347 51.8428 90.4708 51.8428C92.1989 51.8428 93.5204 50.5214 93.5204 48.7933 93.5204 47.0652 92.1989 45.7437 90.4708 45.7437Z" fill="#000000" fill-rule="nonzero" fill-opacity="1" transform="matrix(1 0 0 2.82826 2156.41 1402)"/></g></g></g><g clip-path="url(#clip14)"><g clip-path="url(#clip15)"><g><path d="M258.656 130.781 41.2687 130.781 67.1343 104.916C70.6218 101.428 70.6218 95.9062 67.1343 92.7093 63.6468 89.2218 58.125 89.2218 54.9281 92.7093L14.2406 133.397C10.7531 136.884 10.7531 142.406 14.2406 145.603L54.9281 186.29C56.6718 188.034 58.9968 188.906 61.0312 188.906 63.0656 188.906 65.3906 188.034 67.1343 186.29 70.6218 182.803 70.6218 177.281 67.1343 174.084L41.2687 148.219 258.656 148.219C263.597 148.219 267.375 144.441 267.375 139.5 267.375 134.559 263.597 130.781 258.656 130.781Z" fill="#000000" fill-rule="nonzero" fill-opacity="1" transform="matrix(-2.13154e-16 -1.16036 1 -1.83697e-16 2105 1651.74)"/></g></g></g><g clip-path="url(#clip16)"><g clip-path="url(#clip17)"><g><path d="M255.875 129.375 40.825 129.375 66.4125 103.788C69.8625 100.338 69.8625 94.875 66.4125 91.7125 62.9625 88.2625 57.5 88.2625 54.3375 91.7125L14.0875 131.963C10.6375 135.413 10.6375 140.875 14.0875 144.038L54.3375 184.288C56.0625 186.013 58.3625 186.875 60.375 186.875 62.3875 186.875 64.6875 186.013 66.4125 184.288 69.8625 180.838 69.8625 175.375 66.4125 172.213L40.825 146.625 255.875 146.625C260.763 146.625 264.5 142.888 264.5 138 264.5 133.113 260.763 129.375 255.875 129.375Z" fill="#000000" fill-rule="nonzero" fill-opacity="1" transform="matrix(1.21226 0 0 1 2118.42 1202)"/></g></g></g><g><g><g><path d="M32.0566 167.288C46.6061 167.288 71.2342 152.507 75.6665 139.191 80.0988 125.875 78.1139 99.4737 83.0472 91.9003 85.1306 88.4637 88.5656 86.0639 92.5092 85.2904 96.4528 86.0641 99.8878 88.4637 101.971 91.9003 106.905 99.4737 104.92 125.894 109.352 139.191 113.784 152.488 138.412 167.288 152.962 167.288 154.889 167.288 157.066 164.628 157.471 164.07 165.491 149.826 169.668 133.741 169.593 117.396 169.593 80.569 149.223 49.1576 120.548 36.6123 115.731 34.6852 111.414 34.107 109.718 37.4987 107.502 41.931 108.215 57.0586 106.673 59.7951 106.049 61.3157 104.428 62.1746 102.819 61.8378 100.218 61.6643 100.218 55.8831 100.218 55.8831L100.218 17.3414 96.3634 17.3414 96.3634 21.1956 88.6551 21.1956 88.6551 17.3414 84.8009 17.3414 84.8009 55.8831C84.8009 55.8831 84.8009 61.6643 82.2186 61.9149 80.6095 62.2517 78.989 61.3928 78.3644 59.8721 76.8228 57.1357 77.5358 42.0081 75.3196 37.5758 73.6045 34.1841 69.3842 34.6852 64.4702 36.6123 35.7952 49.1576 15.4259 80.569 15.4259 117.396 15.3499 133.741 19.5271 149.826 27.5473 164.07 27.9519 164.628 30.0717 167.288 32.0566 167.288ZM137.796 142.603C136.199 142.603 134.905 141.308 134.905 139.712 134.905 138.115 136.199 136.821 137.796 136.821 139.392 136.821 140.686 138.115 140.686 139.712 140.686 141.308 139.392 142.603 137.796 142.603ZM130.865 93.441 134.857 97.4327C135.756 96.8521 136.751 96.437 137.796 96.2069L137.796 90.571 141.65 90.571 141.65 96.2069C142.694 96.4368 143.69 96.8519 144.588 97.4325L148.58 93.441 151.305 96.1659 147.313 100.158C147.894 101.056 148.31 102.052 148.54 103.097L154.176 103.097 154.176 106.951 148.539 106.951C148.309 107.996 147.894 108.991 147.313 109.89L151.305 113.881 148.58 116.606 144.588 112.615C143.69 113.195 142.695 113.61 141.65 113.84L141.65 119.476 137.796 119.476 137.796 113.84C136.751 113.61 135.756 113.195 134.857 112.614L130.865 116.606 128.141 113.881 132.132 109.89C131.551 108.991 131.136 107.996 130.906 106.951L125.27 106.951 125.27 103.097 130.906 103.097C131.136 102.052 131.551 101.056 132.132 100.158L128.14 96.1659ZM124.306 73.2268C125.902 73.2268 127.197 74.5211 127.197 76.1174 127.197 77.7139 125.902 79.0081 124.306 79.0081 122.71 79.0081 121.415 77.7139 121.415 76.1174 121.415 74.5211 122.71 73.2268 124.306 73.2268ZM88.6551 25.0498 96.3634 25.0498 96.3634 28.9039 88.6551 28.9039ZM88.6551 32.7581 96.3634 32.7581 96.3634 36.6123 88.6551 36.6123ZM88.6551 40.4664 96.3634 40.4664 96.3634 44.3206 88.6551 44.3206ZM88.6551 48.1748 96.3634 48.1748 96.3634 52.0289 88.6551 52.0289ZM52.2155 73.4681 56.0974 73.4681C56.2182 73.0547 56.3834 72.6556 56.5903 72.2781L53.8452 69.533 56.2296 67.1486 58.9747 69.8936C59.3522 69.6866 59.7513 69.5212 60.1647 69.4006L60.1647 65.5189 63.5371 65.5189 63.5371 69.4008C63.9502 69.5216 64.349 69.6868 64.7263 69.8936L67.4712 67.1486 69.8556 69.533 67.1107 72.2779C67.3176 72.6556 67.483 73.0547 67.6038 73.4681L71.4863 73.4681 71.4863 76.8405 67.6034 76.8405C67.4828 77.2537 67.3176 77.6524 67.1107 78.0297L69.8556 80.7746 67.4712 83.159 64.7263 80.4143C64.349 80.621 63.9502 80.7862 63.5371 80.9068L63.5371 84.7897 60.1647 84.7897 60.1647 80.907C59.7513 80.7864 59.3522 80.621 58.9747 80.4141L56.2296 83.159 53.8452 80.7746 56.5901 78.0297C56.3835 77.6524 56.2184 77.2537 56.0976 76.8405L52.2155 76.8405ZM39.6908 90.571C41.2874 90.571 42.5814 91.8652 42.5814 93.4616 42.5814 95.058 41.2874 96.3522 39.6908 96.3522 38.0944 96.3522 36.8001 95.058 36.8001 93.4616 36.8001 91.8652 38.0944 90.571 39.6908 90.571ZM32.9427 121.405 37.9944 121.405C38.2127 120.458 38.59 119.555 39.1101 118.734L35.5316 115.155 38.2564 112.43 41.8348 116.009C42.6558 115.488 43.5592 115.111 44.5064 114.892L44.5064 109.842 48.3605 109.842 48.3605 114.892C49.3077 115.111 50.2109 115.488 51.032 116.009L54.6102 112.43 57.3353 115.155 53.7569 118.734C54.2772 119.555 54.6548 120.458 54.8731 121.405L59.9238 121.405 59.9238 125.259 54.8731 125.259C54.6548 126.206 54.2774 127.11 53.7571 127.93L57.3351 131.508 54.6102 134.233 51.032 130.655C50.2109 131.176 49.3077 131.553 48.3603 131.771L48.3603 136.823 44.5062 136.823 44.5062 131.771C43.559 131.553 42.6556 131.176 41.8347 130.655L38.2564 134.233 35.5314 131.508 39.11 127.93C38.5898 127.109 38.2127 126.206 37.9944 125.259L32.9427 125.259Z" stroke="#000000" stroke-width="1.92708" stroke-linecap="butt" stroke-linejoin="miter" stroke-miterlimit="4" stroke-opacity="1" fill="#FFFFFF" fill-rule="nonzero" fill-opacity="1" transform="matrix(1.01081 0 0 1 2392 1423)"/></g></g></g><g clip-path="url(#clip18)"><g clip-path="url(#clip19)"><g><path d="M168.018 84.9528 26.8073 84.9528 43.6091 68.1511C45.8745 65.8857 45.8745 62.2988 43.6091 60.2221 41.3437 57.9567 37.7568 57.9567 35.6802 60.2221L9.25042 86.6519C6.98501 88.9173 6.98501 92.5042 9.25042 94.5808L35.6802 121.011C36.8129 122.143 38.3232 122.71 39.6447 122.71 40.9662 122.71 42.4764 122.143 43.6091 121.011 45.8745 118.745 45.8745 115.158 43.6091 113.082L26.8073 96.2799 168.018 96.2799C171.227 96.2799 173.681 93.8257 173.681 90.6164 173.681 87.407 171.227 84.9528 168.018 84.9528Z" fill="#FFFFFF" fill-rule="nonzero" fill-opacity="1" transform="matrix(-1.83697e-16 -1 1.09804 -2.01706e-16 2385 1509.23)"/></g></g></g><g clip-path="url(#clip20)"><g clip-path="url(#clip21)"><g><path d="M80.4187 40.6611 12.8308 40.6611 20.8727 32.6193C21.957 31.535 21.957 29.8182 20.8727 28.8242 19.7884 27.7399 18.0716 27.7399 17.0777 28.8242L4.42755 41.4744C3.34325 42.5587 3.34325 44.2755 4.42755 45.2694L17.0777 57.9195C17.6198 58.4617 18.3427 58.7327 18.9752 58.7327 19.6077 58.7327 20.3306 58.4617 20.8727 57.9195 21.957 56.8352 21.957 55.1184 20.8727 54.1245L12.8308 46.0826 80.4187 46.0826C81.9548 46.0826 83.1294 44.908 83.1294 43.3719 83.1294 41.8358 81.9548 40.6611 80.4187 40.6611Z" fill="#FFFFFF" fill-rule="nonzero" fill-opacity="1" transform="matrix(1 0 0 3.18179 2398.26 1206)"/></g></g></g><g clip-path="url(#clip22)"><g clip-path="url(#clip23)"><g><path d="M312.894 157.822 264.756 109.685C260.63 106.934 255.129 107.622 251.69 111.06 248.252 114.499 247.564 120 250.315 124.126L280.917 154.728 244.126 154.728C234.499 154.728 224.183 155.072 213.18 155.072 153.352 156.103 62.5788 157.478 47.4498 123.095 45.043 117.937 39.1977 115.53 33.6963 117.937 28.5387 120.344 26.1318 126.189 28.5387 131.691 46.0745 170.888 112.092 176.39 176.046 176.39 188.768 176.39 201.49 176.046 213.524 176.046 224.527 175.702 234.842 175.702 244.126 175.702L281.261 175.702 250.659 206.304C247.564 210.43 247.908 216.275 251.347 220.057 254.785 223.839 260.974 224.183 265.1 220.745L313.238 172.607C314.269 171.576 314.957 170.544 315.301 169.169 315.301 168.825 315.645 168.481 315.645 168.138 315.645 167.794 315.645 167.794 315.988 167.45 315.988 167.106 315.988 166.762 315.988 166.418 315.988 166.074 315.988 165.731 315.988 165.387 315.988 165.043 315.988 165.043 315.988 164.699 315.645 161.948 314.613 159.542 312.894 157.822Z" fill="#000000" fill-rule="nonzero" fill-opacity="1" transform="matrix(1.34824 0 0 1 1958 1491)"/></g></g></g></g></g></svg>