<svg width="97" height="97" xmlns="http://www.w3.org/2000/svg" xmlns:xlink="http://www.w3.org/1999/xlink" xml:space="preserve" overflow="hidden"><g transform="translate(-1064 -244)"><g><g><g><g><path d="M1094 271C1095.7 271 1097 269.7 1097 268L1097 262C1097 260.3 1095.7 259 1094 259 1092.3 259 1091 260.3 1091 262L1091 268C1091 269.7 1092.3 271 1094 271Z" fill="#000000" fill-rule="nonzero" fill-opacity="1"/><path d="M1085 313 1101 313 1101 321 1085 321 1085 313ZM1085 301 1101 301 1101 309 1085 309 1085 301ZM1085 289 1101 289 1101 297 1085 297 1085 289ZM1121 289 1121 297 1105 297 1105 289 1121 289ZM1141 289 1141 297 1125 297 1125 289 1141 289ZM1141 309 1125 309 1125 301 1141 301 1141 309ZM1141 321 1125 321 1125 313 1141 313 1141 321ZM1105 309 1105 301 1121 301 1121 309 1105 309ZM1105 321 1105 313 1121 313 1121 321 1105 321ZM1079 327 1147 327 1147 283 1079 283 1079 327Z" fill="#000000" fill-rule="nonzero" fill-opacity="1"/><path d="M1132 271C1133.7 271 1135 269.7 1135 268L1135 262C1135 260.3 1133.7 259 1132 259 1130.3 259 1129 260.3 1129 262L1129 268C1129 269.7 1130.3 271 1132 271Z" fill="#000000" fill-rule="nonzero" fill-opacity="1"/><path d="M1139 265 1139 268C1139 271.9 1135.9 275 1132 275 1128.1 275 1125 271.9 1125 268L1125 265 1101 265 1101 268C1101 271.9 1097.9 275 1094 275 1090.1 275 1087 271.9 1087 268L1087 265 1079 265 1079 279 1147 279 1147 265 1139 265Z" fill="#000000" fill-rule="nonzero" fill-opacity="1"/></g></g></g></g></g></svg>